<?xml version="1.0" encoding="UTF-8" standalone="no"?>
<!DOCTYPE svg PUBLIC "-//W3C//DTD SVG 1.1//EN" "http://www.w3.org/Graphics/SVG/1.1/DTD/svg11.dtd">
<svg width="100%" height="100%" viewBox="0 0 512 512" version="1.1" xmlns="http://www.w3.org/2000/svg" xmlns:xlink="http://www.w3.org/1999/xlink" xml:space="preserve" xmlns:serif="http://www.serif.com/" style="fill-rule:evenodd;clip-rule:evenodd;stroke-linejoin:round;stroke-miterlimit:2;">
    <path d="M363,95C386.696,73.671 386.065,58.613 399,57C411.935,55.387 430,66 430,66C430,66 445.774,80.409 436,89C426.226,97.591 406,114 406,114C406,114 387.082,127.725 382,116C375.942,102.022 350.74,106.035 363,95Z" style="fill:rgb(131,86,2);"/>
    <path d="M330,304C330,304 355.871,329.335 391,327C426.129,324.665 460.432,310.414 475,313C489.568,315.586 494,323 494,323C494,323 499.464,335.682 492,341C484.536,346.318 473.551,358.261 456,364C438.449,369.739 411.896,376.792 391,377C370.104,377.208 356.801,380.702 351,373C345.199,365.298 329.318,330.893 329,324C328.682,317.107 330,304 330,304Z" style="fill:rgb(254,254,52);"/>
    <path d="M192,280C192,280 158.509,279.593 146,272C133.491,264.407 125.491,252.246 116,255C106.509,257.754 104,269 104,269C104,269 105.553,291.556 117,304C128.447,316.444 141.804,330.33 157,337C172.196,343.67 180,336 180,336C180,336 191.782,317.248 193,305C194.218,292.752 192,280 192,280Z" style="fill:rgb(254,254,52);"/>
    <path d="M333,99C333,99 284.087,141.437 270,167C255.913,192.563 230.079,214.027 238,333C245.921,451.973 410,456 410,456C410,456 427.638,461.663 430,453C432.362,444.337 434.789,423.712 426,421C417.211,418.288 362.34,400.29 356,381C349.66,361.71 321.792,337.04 323,298C324.208,258.96 368,185 368,185C368,185 387.955,152.216 385,138C382.045,123.784 377.293,101.784 365,96C352.707,90.216 333,99 333,99" style="fill:rgb(254,254,52);"/>
    <path d="M322,99C322,99 280.313,104.596 256,122C231.687,139.404 205,188 205,188C205,188 194.62,219.263 193,240C191.38,260.737 198.553,291.553 191,310C183.447,328.447 166.261,363.375 151,370C135.739,376.625 97.591,389.938 72,385C46.409,380.062 33.263,371.419 27,376C20.737,380.581 15.027,384.501 17,393C18.973,401.499 22.055,409.266 31,414C39.945,418.734 56.945,430.159 77,432C97.055,433.841 213.285,416.444 227,352C240.426,288.911 239,248 239,248C239,248 245.759,192.988 261,174C276.241,155.012 286.355,132.104 303,124C319.645,115.896 334.809,107.179 331,104C327.191,100.821 322,99 322,99Z" style="fill:rgb(254,254,52);"/>
    <path d="M364,353C364,353 395.588,359.592 415,356C434.412,352.408 464.198,340.749 468,338C471.802,335.251 475.214,334.715 475,337C474.786,339.285 469.055,342.88 467,344C461.026,347.257 425.774,359.595 417,361C408.124,362.422 373.616,363.032 364,359C354.384,354.968 364,353 364,353Z" style="fill:rgb(255,255,114);"/>
    <g transform="matrix(1,0,0,1,-6,-1)">
        <path d="M329,129C329,129 291.129,163.809 281,187C270.871,210.191 258.655,240.425 262,281C265.328,321.362 265.278,331.127 276,356C286.722,380.873 303,401 303,401C303,401 306.413,403.279 309,402C311.587,400.721 309,396 309,396C309,396 285.405,359.58 281,347C279.283,342.097 273.71,326.468 271.95,309.51C269.768,288.48 267.945,265.698 268,260C268.097,249.95 274.688,215.586 285,196C295.312,176.414 312.072,154.951 322,144C331.928,133.049 339.965,125.923 335,125C332.189,124.477 329,129 329,129Z" style="fill:rgb(255,255,143);"/>
    </g>
    <g id="outline" transform="matrix(1,0,0,1,427.253906,51.90625)">
        <path d="M0,0C7.392,5.636 11.63,12.864 15.684,21.094C16.177,22.04 16.67,22.986 17.178,23.961C19.981,29.576 21.837,33.808 20.746,40.094C16.608,45.067 11.228,48.289 5.844,51.785C4.888,52.412 3.933,53.039 2.949,53.686C-0.094,55.681 -3.143,57.669 -6.191,59.656C-8.238,60.996 -10.284,62.337 -12.33,63.678C-16.089,66.141 -19.85,68.601 -23.613,71.057C-24.416,71.587 -25.22,72.116 -26.047,72.662C-27.408,73.545 -28.783,74.407 -30.178,75.232C-33.318,77.117 -33.318,77.117 -35.055,80.238C-35.082,81.001 -35.109,81.764 -35.137,82.551C-35.187,83.408 -35.237,84.266 -35.288,85.15C-35.333,86.514 -35.333,86.514 -35.379,87.906C-36.968,112.444 -47.089,131.571 -60.281,151.723C-77.487,178.158 -94.414,213.501 -89.254,246.094C-87.308,249.857 -85.017,251.282 -81.254,253.094C-80.27,253.606 -79.287,254.117 -78.273,254.645C-61.065,262.775 -41.589,266.471 -22.666,266.409C-20.651,266.406 -18.639,266.43 -16.625,266.455C1.143,266.549 17.124,262.413 33.801,256.629C55.287,249.232 55.287,249.232 66.184,253.594C71.28,256.606 74.892,261.532 76.746,267.094C77.54,276.456 77.323,284.19 71.746,292.094C69.434,294.781 69.434,294.781 66.746,297.094C66.264,297.577 65.782,298.061 65.285,298.559C34.083,328.56 -10.455,332.715 -51.254,333.094C-38.297,344.985 -23.361,353.3 -6.816,359.156C1.542,362.176 6.328,365.104 10.621,372.969C14.187,380.854 14.556,387.831 11.746,396.094C8.044,403.219 3.464,408.316 -4.054,411.456C-8.632,412.783 -13.388,412.519 -18.117,412.492C-19.263,412.495 -20.409,412.498 -21.59,412.501C-24.015,412.503 -26.44,412.497 -28.865,412.485C-32.516,412.469 -36.167,412.485 -39.818,412.504C-81.699,412.542 -118.553,399.159 -149.254,370.094C-150.138,369.274 -151.023,368.454 -151.934,367.609C-169.885,350.421 -183.478,327.01 -190.254,303.094L-190.254,299.094L-192.254,299.094C-192.5,299.926 -192.746,300.759 -193,301.617C-199.054,318.403 -211.13,332.356 -223.254,345.094C-223.847,345.74 -224.44,346.385 -225.051,347.051C-243.493,366.543 -269.677,378.539 -295.254,385.094C-295.917,385.273 -296.58,385.452 -297.263,385.637C-329.306,394.029 -366.43,387.907 -394.807,371.506C-403.899,366.035 -414.861,358.777 -418.777,348.371C-420.256,341.303 -420.909,332.871 -417.129,326.469C-413.709,322.012 -409.501,318.226 -404.254,316.094C-394.266,314.874 -384.89,317.008 -375.188,319.074C-343.941,325.677 -310.816,325.75 -283.141,308.109C-277.678,304.295 -273.32,300.369 -269.254,295.094C-270.1,294.854 -270.945,294.614 -271.816,294.367C-275.661,292.943 -278.882,291.004 -282.254,288.719C-282.902,288.282 -283.55,287.845 -284.217,287.395C-304.87,273.168 -325.483,252.328 -331.254,227.094C-331.535,224.233 -331.579,221.405 -331.566,218.531C-331.583,217.802 -331.599,217.073 -331.615,216.322C-331.62,210.492 -330.397,206.397 -326.316,202.012C-325.636,201.441 -324.955,200.87 -324.254,200.281C-323.573,199.697 -322.893,199.113 -322.191,198.512C-317.069,194.763 -310.284,195.498 -304.254,196.094C-300.599,197.275 -297.518,199.087 -294.254,201.094C-277.886,210.923 -262.242,216.413 -243.254,219.094C-243.275,218.118 -243.296,217.143 -243.317,216.138C-244.04,179.181 -244.04,179.181 -239.254,161.094C-239.067,160.374 -238.879,159.655 -238.687,158.914C-237.427,154.223 -235.932,149.65 -234.254,145.094C-234.003,144.41 -233.751,143.726 -233.493,143.022C-227.8,127.834 -220.27,113.883 -210.254,101.094C-209.277,99.812 -209.277,99.812 -208.281,98.504C-183.325,66.737 -148.451,46.619 -109.254,38.094C-108.17,37.857 -107.086,37.619 -105.969,37.375C-100.715,36.413 -96.309,36.033 -91.027,36.883C-83.324,37.792 -75.865,38.282 -69.236,33.698C-60.072,26.294 -52.322,17.296 -44.476,8.555C-32.465,-4.585 -16.089,-8.406 0,0ZM-34.309,22.953C-34.855,23.502 -35.401,24.052 -35.964,24.617C-37.691,26.355 -39.41,28.099 -41.129,29.844C-42.306,31.03 -43.483,32.217 -44.66,33.402C-47.53,36.294 -50.394,39.192 -53.254,42.094C-51.205,44.706 -49.228,47.118 -46.816,49.406C-43.698,52.677 -41.541,56.223 -39.254,60.094C-31.247,55.903 -23.847,50.929 -16.385,45.854C-14.235,44.393 -12.079,42.942 -9.922,41.49C-8.553,40.563 -7.185,39.635 -5.816,38.707C-4.849,38.057 -4.849,38.057 -3.863,37.394C-0.529,35.241 -0.529,35.241 1.746,32.094C-1.172,25.145 -5.054,16.391 -12.254,13.094C-22.117,11.131 -27.761,16.274 -34.309,22.953ZM-123.254,82.094C-124.114,82.889 -124.974,83.684 -125.859,84.504C-157.438,114.715 -176.643,159.277 -178.816,202.727C-178.857,203.534 -178.898,204.341 -178.941,205.173C-179.376,214.561 -179.44,223.948 -179.439,233.344C-179.441,236.327 -179.46,239.31 -179.479,242.293C-179.509,252.381 -179.226,262.382 -178.375,272.438C-178.298,273.357 -178.222,274.276 -178.143,275.223C-175.6,302.38 -164.023,327.55 -146.254,348.094C-145.581,348.899 -144.908,349.705 -144.215,350.535C-124.895,372.981 -98.028,387.339 -69.254,393.344C-68.099,393.589 -68.099,393.589 -66.921,393.839C-54.837,396.189 -42.426,396.281 -30.152,396.279C-28.095,396.281 -26.038,396.3 -23.98,396.318C-22.666,396.32 -21.351,396.322 -19.996,396.324C-18.819,396.328 -17.642,396.332 -16.429,396.337C-12.142,396.009 -9.342,394.97 -6.004,392.281C-3.946,389.709 -3.332,388.388 -3.254,385.094C-4.872,380.835 -6.437,378.506 -10.254,376.094C-12.941,374.937 -15.69,373.963 -18.441,372.969C-37.286,365.867 -52.567,355.905 -67.254,342.094C-67.844,341.568 -68.435,341.042 -69.043,340.5C-90.527,320.543 -105.179,287.433 -106.415,258.296C-106.435,256.932 -106.448,255.567 -106.457,254.203C-106.464,253.465 -106.471,252.727 -106.478,251.967C-106.707,221.046 -106.707,221.046 -103.254,207.094C-103.055,206.27 -102.857,205.446 -102.652,204.597C-96.653,180.375 -85.924,159.123 -72.303,138.352C-58.974,117.954 -49.628,97.058 -52.254,72.094C-54.115,65.056 -58.187,60.034 -64.254,56.094C-85.853,44.705 -108.36,68.008 -123.254,82.094ZM-128.254,61.094C-130.702,61.967 -133.014,62.905 -135.379,63.969C-136.09,64.286 -136.8,64.603 -137.532,64.93C-172.862,81.038 -201.793,109.376 -216.318,145.759C-224.579,167.983 -227.181,190.033 -227.43,213.621C-227.442,214.629 -227.454,215.638 -227.466,216.676C-227.514,220.838 -227.562,225 -227.58,229.162C-227.681,249.103 -230.209,266.203 -239.254,284.094C-239.789,285.152 -240.324,286.21 -240.875,287.301C-254.107,311.512 -277.016,328.159 -303.191,335.906C-310.55,338.054 -317.452,339.249 -325.125,339.297C-326.251,339.307 -326.251,339.307 -327.4,339.318C-329.831,339.335 -332.261,339.341 -334.691,339.344C-335.52,339.345 -336.349,339.346 -337.203,339.348C-354.955,339.342 -371.847,337.335 -389.199,333.664C-393.044,332.946 -396.363,332.712 -400.254,333.094C-402.796,335.635 -402.567,337.449 -402.715,340.926C-401.477,346.746 -396.126,349.909 -391.441,352.969C-390.781,353.401 -390.12,353.834 -389.439,354.28C-362.552,371.479 -331.712,375.092 -300.688,368.925C-269.955,362.11 -242.261,344.073 -223.254,319.094C-222.399,318.015 -222.399,318.015 -221.527,316.914C-203.076,292.342 -195.268,262.33 -195.043,231.98C-195.015,229.822 -194.986,227.664 -194.957,225.506C-194.916,222.161 -194.879,218.816 -194.853,215.47C-194.694,197.112 -193.379,179.38 -188.566,161.594C-188.311,160.64 -188.055,159.686 -187.792,158.704C-178.924,126.813 -161.895,99.02 -139.629,74.781C-139.102,74.206 -138.576,73.631 -138.034,73.039C-134.346,69.083 -130.426,65.532 -126.254,62.094C-126.914,61.764 -127.574,61.434 -128.254,61.094ZM-314.254,214.094C-315.87,227.212 -308.79,237.966 -301.254,248.094C-297.84,252.343 -294.106,256.242 -290.254,260.094C-289.452,260.896 -288.65,261.697 -287.824,262.523C-278.96,270.922 -268.607,277.592 -257.254,282.094C-247.915,268.486 -243.454,252.536 -244.254,236.094C-245.44,235.935 -246.626,235.777 -247.848,235.613C-267.76,232.805 -286.229,227.1 -303.194,215.989C-308.643,212.401 -308.643,212.401 -314.254,214.094ZM-88.254,269.094C-85.749,281.188 -81.766,292.044 -76.254,303.094C-75.759,304.106 -75.264,305.118 -74.754,306.16C-73.026,309.218 -71.631,311.59 -68.238,312.831C-29.011,319.678 11.351,315.546 44.746,292.531C53.847,286.634 53.847,286.634 59.746,278.094C59.996,274.552 59.996,274.552 59.746,271.094C58.756,270.104 58.756,270.104 57.746,269.094C50.321,269.355 43.855,271.512 36.871,273.906C8.005,283.486 -25.349,287.856 -55.254,280.094C-56.101,279.879 -56.948,279.664 -57.82,279.443C-68.279,276.743 -78.451,273.681 -88.254,269.094Z" style="fill-rule:nonzero;"/>
    </g>
</svg>
