<?xml version="1.0" encoding="UTF-8" standalone="no"?>
<!DOCTYPE svg PUBLIC "-//W3C//DTD SVG 1.1//EN" "http://www.w3.org/Graphics/SVG/1.1/DTD/svg11.dtd">
<svg width="100%" height="100%" viewBox="0 0 340 500" version="1.1" xmlns="http://www.w3.org/2000/svg" xmlns:xlink="http://www.w3.org/1999/xlink" xml:space="preserve" xmlns:serif="http://www.serif.com/" style="fill-rule:evenodd;clip-rule:evenodd;stroke-linejoin:round;stroke-miterlimit:2;">
    <g id="Leaves">
        <path d="M309,29C309,29 306.867,46.074 317,46C327.133,45.926 324,26 324,26L309,29Z" style="fill:rgb(49,87,44);"/>
        <g transform="matrix(0.650004,0,0,0.650004,94.083217,9.099892)">
            <path d="M309,29C309,29 306.867,46.074 317,46C327.133,45.926 324,26 324,26L309,29Z" style="fill:rgb(49,87,44);"/>
        </g>
        <g transform="matrix(-1.037218,0,0,1.84999,656.514865,21.900262)">
            <path d="M309,29C309,29 306.867,46.074 317,46C327.133,45.926 324,26 324,26L309,29Z" style="fill:rgb(49,87,44);"/>
        </g>
        <g transform="matrix(-1.037218,0,0,1.84999,656.514865,21.900262)">
            <path d="M309,29C309,29 306.867,46.074 317,46C327.133,45.926 324,26 324,26L309,29Z" style="fill:rgb(49,87,44);"/>
        </g>
        <g transform="matrix(-1.037218,0,0,1.84999,571.514865,-32.099738)">
            <path d="M309,29C309,29 306.867,46.074 317,46C327.133,45.926 324,26 324,26L309,29Z" style="fill:rgb(49,87,44);"/>
        </g>
        <g transform="matrix(-0.588694,0,0,1.049999,483.004896,22.700015)">
            <path d="M309,29C309,29 306.867,46.074 317,46C327.133,45.926 324,26 324,26L309,29Z" style="fill:rgb(49,87,44);"/>
        </g>
        <g transform="matrix(-1.48211,0,0,1.649992,628.507489,-26.8998)">
            <path d="M309,29C309,29 306.867,46.074 317,46C327.133,45.926 324,26 324,26L309,29Z" style="fill:rgb(49,87,44);"/>
        </g>
        <g transform="matrix(-0.609763,0,0,1.949989,463.115657,45.300293)">
            <path d="M309,29C309,29 306.867,46.074 317,46C327.133,45.926 324,26 324,26L309,29Z" style="fill:rgb(49,87,44);"/>
        </g>
        <g transform="matrix(-0.609763,0,0,1.949989,382.115657,-20.699707)">
            <path d="M309,29C309,29 306.867,46.074 317,46C327.133,45.926 324,26 324,26L309,29Z" style="fill:rgb(49,87,44);"/>
        </g>
        <g transform="matrix(-0.609763,0,0,1.949989,300.115657,373.300293)">
            <path d="M309,29C309,29 306.867,46.074 317,46C327.133,45.926 324,26 324,26L309,29Z" style="fill:rgb(49,87,44);"/>
        </g>
        <g transform="matrix(-0.906826,0,0,2.899977,611.852363,42.600586)">
            <path d="M309,29C309,29 306.867,46.074 317,46C327.133,45.926 324,26 324,26L309,29Z" style="fill:rgb(49,87,44);"/>
        </g>
        <g transform="matrix(-0.906826,0,0,2.899977,301.852363,294.600586)">
            <path d="M309,29C309,29 306.867,46.074 317,46C327.133,45.926 324,26 324,26L309,29Z" style="fill:rgb(49,87,44);"/>
        </g>
        <g transform="matrix(-1.077901,0,0,1.199998,467.682576,-25.199938)">
            <path d="M309,29C309,29 306.867,46.074 317,46C327.133,45.926 324,26 324,26L309,29Z" style="fill:rgb(49,87,44);"/>
        </g>
    </g>
    <g id="Top-Vines" serif:id="Top Vines">
        <g transform="matrix(1,0,0,1,-2,-2)">
            <path d="M235,26C157.011,25.346 103,-4 103,-4C103,-4 94.948,-4.42 98,1C101.052,6.42 156.079,35.564 235,36C334.433,36.549 353.371,23.73 358,7C359.808,0.463 355.566,-5.689 349,1C342.434,7.689 342.517,13.704 327,18C311.483,22.296 264.109,26.244 235,26Z" style="fill:rgb(49,87,44);"/>
        </g>
        <g transform="matrix(0.860276,0.509828,-0.509828,0.860276,93.997709,-101.935347)">
            <path d="M235,26C157.011,25.346 103,-4 103,-4C103,-4 94.948,-4.42 98,1C101.052,6.42 156.079,35.564 235,36C334.433,36.549 353.371,23.73 358,7C359.808,0.463 355.566,-5.689 349,1C342.434,7.689 342.517,13.704 327,18C311.483,22.296 264.109,26.244 235,26Z" style="fill:rgb(49,87,44);"/>
        </g>
        <g transform="matrix(0.860276,0.509828,-0.509828,0.860276,74.997709,-52.935347)">
            <path d="M235,26C157.011,25.346 103,-4 103,-4C103,-4 94.948,-4.42 98,1C101.052,6.42 156.079,35.564 235,36C334.433,36.549 353.371,23.73 358,7C359.808,0.463 355.566,-5.689 349,1C342.434,7.689 342.517,13.704 327,18C311.483,22.296 264.109,26.244 235,26Z" style="fill:rgb(49,87,44);"/>
        </g>
    </g>
    <g id="Bottom-Vines" serif:id="Bottom Vines" transform="matrix(-1,-0,0,-1,341.264546,499.166736)">
        <g transform="matrix(1,0,0,1,-2,-2)">
            <path d="M235,26C157.011,25.346 103,-4 103,-4C103,-4 94.948,-4.42 98,1C101.052,6.42 156.079,35.564 235,36C334.433,36.549 353.371,23.73 358,7C359.808,0.463 355.566,-5.689 349,1C342.434,7.689 342.517,13.704 327,18C311.483,22.296 264.109,26.244 235,26Z" style="fill:rgb(49,87,44);"/>
        </g>
        <g transform="matrix(0.860276,0.509828,-0.509828,0.860276,93.997709,-101.935347)">
            <path d="M235,26C157.011,25.346 103,-4 103,-4C103,-4 94.948,-4.42 98,1C101.052,6.42 156.079,35.564 235,36C334.433,36.549 353.371,23.73 358,7C359.808,0.463 355.566,-5.689 349,1C342.434,7.689 342.517,13.704 327,18C311.483,22.296 264.109,26.244 235,26Z" style="fill:rgb(49,87,44);"/>
        </g>
        <g transform="matrix(0.860276,0.509828,-0.509828,0.860276,74.997709,-52.935347)">
            <path d="M235,26C157.011,25.346 103,-4 103,-4C103,-4 94.948,-4.42 98,1C101.052,6.42 156.079,35.564 235,36C334.433,36.549 353.371,23.73 358,7C359.808,0.463 355.566,-5.689 349,1C342.434,7.689 342.517,13.704 327,18C311.483,22.296 264.109,26.244 235,26Z" style="fill:rgb(49,87,44);"/>
        </g>
    </g>
    <g id="Leaves1" serif:id="Leaves" transform="matrix(-1,-0,0,-1,341.264546,499.166736)">
        <g transform="matrix(-1,0,-0,-1,634.625704,50)">
            <path d="M309,29C309,29 306.867,46.074 317,46C327.133,45.926 324,26 324,26L309,29Z" style="fill:rgb(49,87,44);"/>
        </g>
        <g transform="matrix(-0.650004,0,-0,-0.650004,495.542487,42.900108)">
            <path d="M309,29C309,29 306.867,46.074 317,46C327.133,45.926 324,26 324,26L309,29Z" style="fill:rgb(49,87,44);"/>
        </g>
        <g transform="matrix(1.037218,-0,-0,-1.84999,-0.551254,122.099738)">
            <path d="M309,29C309,29 306.867,46.074 317,46C327.133,45.926 324,26 324,26L309,29Z" style="fill:rgb(49,87,44);"/>
        </g>
        <g transform="matrix(1.037218,-0,-0,-1.84999,-77.551254,74.099738)">
            <path d="M309,29C309,29 306.867,46.074 317,46C327.133,45.926 324,26 324,26L309,29Z" style="fill:rgb(49,87,44);"/>
        </g>
        <g transform="matrix(0.588694,-0,-0,-1.049999,109.992531,82.299985)">
            <path d="M309,29C309,29 306.867,46.074 317,46C327.133,45.926 324,26 324,26L309,29Z" style="fill:rgb(49,87,44);"/>
        </g>
        <g transform="matrix(1.48211,-0,-0,-1.649992,-275.255361,70.8998)">
            <path d="M309,29C309,29 306.867,46.074 317,46C327.133,45.926 324,26 324,26L309,29Z" style="fill:rgb(49,87,44);"/>
        </g>
        <g transform="matrix(1.077901,-0,-0,-1.199998,-212.7832,43.199938)">
            <path d="M309,29C309,29 306.867,46.074 317,46C327.133,45.926 324,26 324,26L309,29Z" style="fill:rgb(49,87,44);"/>
        </g>
        <g transform="matrix(0.609763,-0,-0,-1.949989,78.148888,149.866443)">
            <path d="M309,29C309,29 306.867,46.074 317,46C327.133,45.926 324,26 324,26L309,29Z" style="fill:rgb(49,87,44);"/>
        </g>
    </g>
</svg>
