<?xml version="1.0" encoding="UTF-8" standalone="no"?>
<!DOCTYPE svg PUBLIC "-//W3C//DTD SVG 1.1//EN" "http://www.w3.org/Graphics/SVG/1.1/DTD/svg11.dtd">
<svg width="100%" height="100%" viewBox="0 0 340 500" version="1.1" xmlns="http://www.w3.org/2000/svg" xmlns:xlink="http://www.w3.org/1999/xlink" xml:space="preserve" xmlns:serif="http://www.serif.com/" style="fill-rule:evenodd;clip-rule:evenodd;stroke-linejoin:round;stroke-miterlimit:2;">
    <g id="Sparkle" transform="matrix(0.250746,0.594708,-0.582523,0.245609,164.507358,338.400725)">
        <g transform="matrix(1,0,0,1,-17,-10)">
            <path d="M65,267C65,267 71.053,250.803 66.914,233.485C64.49,223.339 51,206 51,206C51,206 65.529,222.308 74.681,227.48C86.181,233.98 108,233 108,233L65,267Z" style="fill:white;"/>
        </g>
        <g transform="matrix(-1,-0,0,-1,154,489)">
            <path d="M65,267C65,267 71.053,250.803 66.914,233.485C64.49,223.339 51,206 51,206C51,206 65.667,222.072 74.681,227.48C87.181,234.98 108,233 108,233L65,267Z" style="fill:white;"/>
        </g>
        <g transform="matrix(0,-1,1,0,-180,325)">
            <path d="M65,267C65,267 71.053,250.803 66.914,233.485C64.49,223.339 51,206 51,206C51,206 65.065,223.232 74.681,227.48C96.181,236.98 108,233 108,233L65,267Z" style="fill:white;"/>
        </g>
        <g transform="matrix(0,1,-1,0,316,154)">
            <path d="M65,267C65,267 71.053,250.803 66.914,233.485C64.49,223.339 51,206 51,206C51,206 64.66,224.303 74.681,227.48C95.181,233.98 108,233 108,233L65,267Z" style="fill:white;"/>
        </g>
    </g>
    <g id="Sparkle1" serif:id="Sparkle" transform="matrix(0.288194,0.683526,-0.66952,0.282289,206.631032,322.19229)">
        <g transform="matrix(1,0,0,1,-17,-10)">
            <path d="M65,267C65,267 71.053,250.803 66.914,233.485C64.49,223.339 51,206 51,206C51,206 65.529,222.308 74.681,227.48C86.181,233.98 108,233 108,233L65,267Z" style="fill:rgb(40,40,0);"/>
        </g>
        <g transform="matrix(-1,-0,0,-1,154,489)">
            <path d="M65,267C65,267 71.053,250.803 66.914,233.485C64.49,223.339 51,206 51,206C51,206 65.667,222.072 74.681,227.48C87.181,234.98 108,233 108,233L65,267Z" style="fill:rgb(40,40,0);"/>
        </g>
        <g transform="matrix(0,-1,1,0,-180,325)">
            <path d="M65,267C65,267 71.053,250.803 66.914,233.485C64.49,223.339 51,206 51,206C51,206 65.065,223.232 74.681,227.48C96.181,236.98 108,233 108,233L65,267Z" style="fill:rgb(40,40,0);"/>
        </g>
        <g transform="matrix(0,1,-1,0,316,154)">
            <path d="M65,267C65,267 71.053,250.803 66.914,233.485C64.49,223.339 51,206 51,206C51,206 64.66,224.303 74.681,227.48C95.181,233.98 108,233 108,233L65,267Z" style="fill:rgb(40,40,0);"/>
        </g>
    </g>
    <g id="Sparkle2" serif:id="Sparkle" transform="matrix(0.319132,0.756901,-0.741393,0.312593,219.812733,307.945181)">
        <g transform="matrix(1,0,0,1,-17,-10)">
            <path d="M65,267C65,267 71.053,250.803 66.914,233.485C64.49,223.339 51,206 51,206C51,206 65.529,222.308 74.681,227.48C86.181,233.98 108,233 108,233L65,267Z" style="fill:rgb(254,255,84);"/>
        </g>
        <g transform="matrix(-1,-0,0,-1,154,489)">
            <path d="M65,267C65,267 71.053,250.803 66.914,233.485C64.49,223.339 51,206 51,206C51,206 65.667,222.072 74.681,227.48C87.181,234.98 108,233 108,233L65,267Z" style="fill:rgb(254,255,84);"/>
        </g>
        <g transform="matrix(0,-1,1,0,-180,325)">
            <path d="M65,267C65,267 71.053,250.803 66.914,233.485C64.49,223.339 51,206 51,206C51,206 65.065,223.232 74.681,227.48C96.181,236.98 108,233 108,233L65,267Z" style="fill:rgb(254,255,84);"/>
        </g>
        <g transform="matrix(0,1,-1,0,316,154)">
            <path d="M65,267C65,267 71.053,250.803 66.914,233.485C64.49,223.339 51,206 51,206C51,206 64.66,224.303 74.681,227.48C95.181,233.98 108,233 108,233L65,267Z" style="fill:rgb(254,255,84);"/>
        </g>
    </g>
    <g id="Sparkle3" serif:id="Sparkle" transform="matrix(0.250746,0.594708,-0.582523,0.245609,392.507358,-33.599275)">
        <g transform="matrix(1,0,0,1,-17,-10)">
            <path d="M65,267C65,267 71.053,250.803 66.914,233.485C64.49,223.339 51,206 51,206C51,206 65.529,222.308 74.681,227.48C86.181,233.98 108,233 108,233L65,267Z"/>
        </g>
        <g transform="matrix(-1,-0,0,-1,154,489)">
            <path d="M65,267C65,267 71.053,250.803 66.914,233.485C64.49,223.339 51,206 51,206C51,206 65.667,222.072 74.681,227.48C87.181,234.98 108,233 108,233L65,267Z"/>
        </g>
        <g transform="matrix(0,-1,1,0,-180,325)">
            <path d="M65,267C65,267 71.053,250.803 66.914,233.485C64.49,223.339 51,206 51,206C51,206 65.065,223.232 74.681,227.48C96.181,236.98 108,233 108,233L65,267Z"/>
        </g>
        <g transform="matrix(0,1,-1,0,316,154)">
            <path d="M65,267C65,267 71.053,250.803 66.914,233.485C64.49,223.339 51,206 51,206C51,206 64.66,224.303 74.681,227.48C95.181,233.98 108,233 108,233L65,267Z"/>
        </g>
    </g>
    <g id="Sparkle4" serif:id="Sparkle" transform="matrix(0.312141,0.740322,-0.725153,0.305746,446.185302,-59.875457)">
        <g transform="matrix(1,0,0,1,-17,-10)">
            <path d="M65,267C65,267 71.053,250.803 66.914,233.485C64.49,223.339 51,206 51,206C51,206 65.529,222.308 74.681,227.48C86.181,233.98 108,233 108,233L65,267Z" style="fill:rgb(39,0,2);"/>
        </g>
        <g transform="matrix(-1,-0,0,-1,154,489)">
            <path d="M65,267C65,267 71.053,250.803 66.914,233.485C64.49,223.339 51,206 51,206C51,206 65.667,222.072 74.681,227.48C87.181,234.98 108,233 108,233L65,267Z" style="fill:rgb(39,0,2);"/>
        </g>
        <g transform="matrix(0,-1,1,0,-180,325)">
            <path d="M65,267C65,267 71.053,250.803 66.914,233.485C64.49,223.339 51,206 51,206C51,206 65.065,223.232 74.681,227.48C96.181,236.98 108,233 108,233L65,267Z" style="fill:rgb(39,0,2);"/>
        </g>
        <g transform="matrix(0,1,-1,0,316,154)">
            <path d="M65,267C65,267 71.053,250.803 66.914,233.485C64.49,223.339 51,206 51,206C51,206 64.66,224.303 74.681,227.48C95.181,233.98 108,233 108,233L65,267Z" style="fill:rgb(39,0,2);"/>
        </g>
    </g>
    <g id="Sparkle5" serif:id="Sparkle" transform="matrix(0.319132,0.756901,-0.741393,0.312593,447.812733,-64.054819)">
        <g transform="matrix(1,0,0,1,-17,-10)">
            <path d="M65,267C65,267 71.053,250.803 66.914,233.485C64.49,223.339 51,206 51,206C51,206 65.529,222.308 74.681,227.48C86.181,233.98 108,233 108,233L65,267Z" style="fill:rgb(255,217,218);"/>
        </g>
        <g transform="matrix(-1,-0,0,-1,154,489)">
            <path d="M65,267C65,267 71.053,250.803 66.914,233.485C64.49,223.339 51,206 51,206C51,206 65.667,222.072 74.681,227.48C87.181,234.98 108,233 108,233L65,267Z" style="fill:rgb(255,217,218);"/>
        </g>
        <g transform="matrix(0,-1,1,0,-180,325)">
            <path d="M65,267C65,267 71.053,250.803 66.914,233.485C64.49,223.339 51,206 51,206C51,206 65.065,223.232 74.681,227.48C96.181,236.98 108,233 108,233L65,267Z" style="fill:rgb(255,217,218);"/>
        </g>
        <g transform="matrix(0,1,-1,0,316,154)">
            <path d="M65,267C65,267 71.053,250.803 66.914,233.485C64.49,223.339 51,206 51,206C51,206 64.66,224.303 74.681,227.48C95.181,233.98 108,233 108,233L65,267Z" style="fill:rgb(255,217,218);"/>
        </g>
    </g>
</svg>
