<?xml version="1.0" encoding="UTF-8" standalone="no"?>
<!DOCTYPE svg PUBLIC "-//W3C//DTD SVG 1.1//EN" "http://www.w3.org/Graphics/SVG/1.1/DTD/svg11.dtd">
<svg width="100%" height="100%" viewBox="273 118 54 38" version="1.1" xmlns="http://www.w3.org/2000/svg" xmlns:xlink="http://www.w3.org/1999/xlink" xml:space="preserve" xmlns:serif="http://www.serif.com/" style="fill-rule:evenodd;clip-rule:evenodd;stroke-linejoin:round;stroke-miterlimit:2;">
    <g transform="matrix(0.059003,0,0,0.059003,-511.297649,-446.606316)">
        <g transform="matrix(4.166667,0,0,4.166667,13789.199829,9756.646729)">
            <path d="M0,0C0.855,0.134 1.711,0.267 2.592,0.405C4.228,0.676 4.228,0.676 5.896,0.952C9.866,1.438 13.74,1.496 17.729,1.432C19.292,1.419 20.855,1.407 22.418,1.395C24.842,1.37 27.266,1.342 29.69,1.309C56.704,0.959 56.704,0.959 65.092,8.717C65.917,9.604 66.742,10.491 67.592,11.405C68.315,12.12 68.315,12.12 69.053,12.85C71.589,15.527 72.603,16.846 72.53,20.592C71.592,23.405 71.592,23.405 69.592,26.405C67.094,27.582 64.666,28.618 62.092,29.592C61.402,29.865 60.713,30.138 60.002,30.418C54.894,32.405 54.894,32.405 52.592,32.405L52.592,35.405C53.438,35.673 54.283,35.941 55.155,36.217C58.731,37.453 62.131,38.882 65.592,40.405C65.211,45.741 63.432,48.838 59.592,52.405C45.251,64.393 29.006,69.534 11.339,74.604C9.209,75.225 7.095,75.903 4.99,76.604C-8.558,79.797 -23.03,78.376 -35.486,72.333C-37.523,71.349 -39.587,70.445 -41.662,69.542C-55.931,63.13 -62.414,53.388 -70.271,40.277C-71.277,38.621 -72.324,36.989 -73.377,35.362C-78.253,27.759 -78.253,27.759 -77.408,22.405C-76.253,22.034 -75.098,21.662 -73.908,21.28C-69.044,19.448 -65.444,16.617 -61.408,13.405C-41.186,-2.254 -24.585,-3.917 0,0Z" style="fill:rgb(233,178,189);fill-rule:nonzero;"/>
        </g>
    </g>
</svg>
