<?xml version="1.0" encoding="UTF-8" standalone="no"?>
<!DOCTYPE svg PUBLIC "-//W3C//DTD SVG 1.1//EN" "http://www.w3.org/Graphics/SVG/1.1/DTD/svg11.dtd">
<svg width="100%" height="100%" viewBox="0 0 340 500" version="1.1" xmlns="http://www.w3.org/2000/svg" xmlns:xlink="http://www.w3.org/1999/xlink" xml:space="preserve" xmlns:serif="http://www.serif.com/" style="fill-rule:evenodd;clip-rule:evenodd;stroke-linejoin:round;stroke-miterlimit:2;">
    <g id="Loose-Petals" serif:id="Loose Petals" transform="matrix(0.059003,0,0,0.059003,-511.297649,-446.606316)">
        <g transform="matrix(4.166667,0,0,4.166667,9600,8233.333333)">
            <path d="M0,0C1.153,0.437 2.305,0.873 3.493,1.323C14.148,5.43 23.905,10.018 33,17C33.975,17.721 34.949,18.441 35.953,19.184C41.678,23.6 47.071,28.228 50,35C50.145,37.766 50.145,37.766 50,40C49.192,40.398 48.384,40.797 47.551,41.207C46.482,41.737 45.414,42.267 44.312,42.812C43.257,43.335 42.201,43.857 41.113,44.395C40.086,44.924 39.059,45.454 38,46C37.045,46.458 36.09,46.915 35.105,47.387C34.411,47.919 33.716,48.451 33,49C32.582,51.627 32.582,51.627 33,54C33.678,54.11 34.356,54.219 35.055,54.332C51.827,57.189 51.827,57.189 56.625,61.188C58.509,65.041 59.266,67.903 58,72C56.004,74.976 53.801,77.591 51.418,80.266C49.304,82.656 47.548,85.061 45.75,87.688C32.839,104.364 8.06,106.604 -11.351,109.308C-13.631,109.626 -15.909,109.953 -18.188,110.281C-49.018,114.674 -81.493,117.24 -108,98C-117.009,90.775 -125.313,82.421 -131.938,72.938C-134.462,69.499 -137.242,66.866 -140.582,64.227C-142.656,62.432 -142.987,61.066 -143.5,58.375C-142.86,54.054 -141.182,52.74 -138.25,49.637C-135.39,46.285 -133.057,42.708 -130.688,39C-130.217,38.268 -129.746,37.536 -129.26,36.782C-126.919,33.113 -124.644,29.419 -122.457,25.656C-112.185,8.137 -96.695,-0.911 -78,-8C-77.095,-8.35 -76.189,-8.699 -75.256,-9.06C-49.359,-18.431 -24.368,-9.329 0,0Z" style="fill:rgb(232,176,187);fill-rule:nonzero;"/>
        </g>
        <g transform="matrix(4.166667,0,0,4.166667,10824.479167,8552.864583)">
            <path d="M0,0C1.568,0.412 1.568,0.412 3.167,0.833C6.161,1.634 9.144,2.464 12.125,3.312C13.254,3.632 13.254,3.632 14.406,3.958C23.268,6.553 30.048,10.424 37.125,16.312C37.967,16.98 38.809,17.648 39.676,18.336C46.353,23.923 51.039,30.351 55.875,37.495C57.093,39.265 58.348,40.999 59.625,42.727C72.317,59.916 85.639,79.984 84.125,102.312C83.375,105.25 83.375,105.25 82.125,107.312C78.17,109.174 74.332,107.531 70.375,106.375C69.678,106.18 68.98,105.984 68.262,105.783C66.547,105.302 64.836,104.808 63.125,104.312C63.72,109.958 66.896,114.013 69.975,118.609C72.753,122.981 73.782,125.979 73.125,131.312C71.329,134.066 70.072,135.839 67.125,137.312C54.502,139.731 45.799,139.648 34.625,132.625C28.206,128.076 22.199,122.969 16.25,117.828C8.924,111.554 1.345,106.326 -6.875,101.312C-7.826,100.726 -7.826,100.726 -8.796,100.127C-14.855,96.393 -20.861,92.711 -27.312,89.688C-31.526,87.665 -34.73,85.111 -38.137,81.93C-39.955,80.177 -39.955,80.177 -42.5,78.375C-55.956,66.69 -60.556,46.672 -64.409,30.002C-65.471,25.417 -66.944,22.951 -69.875,19.312C-69.938,17.25 -69.938,17.25 -68.875,15.312C-64.812,11.459 -60.791,10.027 -55.562,8.438C-53.956,7.927 -52.351,7.414 -50.746,6.898C-49.936,6.639 -49.127,6.38 -48.292,6.112C-43.871,4.649 -39.527,2.983 -35.178,1.317C-33.413,0.642 -31.644,-0.023 -29.875,-0.688C-28.983,-1.074 -28.091,-1.461 -27.172,-1.859C-17.953,-4.175 -9.002,-2.43 0,0Z" style="fill:rgb(232,177,188);fill-rule:nonzero;"/>
        </g>
        <g transform="matrix(4.166667,0,0,4.166667,13789.199829,9756.646729)">
            <path d="M0,0C0.855,0.134 1.711,0.267 2.592,0.405C4.228,0.676 4.228,0.676 5.896,0.952C9.866,1.438 13.74,1.496 17.729,1.432C19.292,1.419 20.855,1.407 22.418,1.395C24.842,1.37 27.266,1.342 29.69,1.309C56.704,0.959 56.704,0.959 65.092,8.717C65.917,9.604 66.742,10.491 67.592,11.405C68.315,12.12 68.315,12.12 69.053,12.85C71.589,15.527 72.603,16.846 72.53,20.592C71.592,23.405 71.592,23.405 69.592,26.405C67.094,27.582 64.666,28.618 62.092,29.592C61.402,29.865 60.713,30.138 60.002,30.418C54.894,32.405 54.894,32.405 52.592,32.405L52.592,35.405C53.438,35.673 54.283,35.941 55.155,36.217C58.731,37.453 62.131,38.882 65.592,40.405C65.211,45.741 63.432,48.838 59.592,52.405C45.251,64.393 29.006,69.534 11.339,74.604C9.209,75.225 7.095,75.903 4.99,76.604C-8.558,79.797 -23.03,78.376 -35.486,72.333C-37.523,71.349 -39.587,70.445 -41.662,69.542C-55.931,63.13 -62.414,53.388 -70.271,40.277C-71.277,38.621 -72.324,36.989 -73.377,35.362C-78.253,27.759 -78.253,27.759 -77.408,22.405C-76.253,22.034 -75.098,21.662 -73.908,21.28C-69.044,19.448 -65.444,16.617 -61.408,13.405C-41.186,-2.254 -24.585,-3.917 0,0Z" style="fill:rgb(233,178,189);fill-rule:nonzero;"/>
        </g>
        <g transform="matrix(4.166667,0,0,4.166667,12487.5,7833.333333)">
            <path d="M0,0C1.887,2.035 1.887,2.035 3,4C2.82,8.599 1.796,10.226 -1.523,13.453C-9.367,20 -9.367,20 -12,20L-12,23C-7.38,23.66 -2.76,24.32 2,25C3.368,30.472 1.635,33.191 -1,38C-2.827,40.824 -4.863,43.405 -7,46C-7.517,46.686 -8.034,47.372 -8.566,48.078C-14.991,56.07 -23.499,61.45 -32,67C-32.827,67.542 -33.655,68.084 -34.507,68.642C-54.827,81.79 -71.744,85.526 -95.614,80.837C-105.638,78.638 -112.056,74.417 -119.066,67.012C-120.984,65.016 -122.975,63.19 -125.062,61.375C-126.039,60.524 -126.039,60.524 -127.035,59.656C-128.353,58.545 -129.695,57.462 -131.059,56.406C-135.792,52.673 -135.792,52.673 -136.812,49.375C-135.612,45.866 -133.062,45.022 -130,43C-128.867,41.2 -127.742,39.394 -126.68,37.551C-124.386,34.067 -121.722,30.968 -119,27.812C-118.489,27.218 -117.979,26.624 -117.453,26.012C-115.986,24.325 -114.498,22.659 -113,21C-112.202,20.111 -111.404,19.221 -110.582,18.305C-107.55,15.599 -104.364,13.944 -100.688,12.312C-100.062,12.018 -99.436,11.723 -98.791,11.42C-90.975,7.853 -83.141,6.685 -74.688,5.688C-59.742,3.778 -45.618,-0.346 -31.32,-4.984C-19.093,-8.724 -10.706,-7.388 0,0Z" style="fill:rgb(233,178,189);fill-rule:nonzero;"/>
        </g>
    </g>
</svg>
