<?xml version="1.0" encoding="UTF-8" standalone="no"?>
<!DOCTYPE svg PUBLIC "-//W3C//DTD SVG 1.1//EN" "http://www.w3.org/Graphics/SVG/1.1/DTD/svg11.dtd">
<svg width="100%" height="100%" viewBox="0 0 750 628" version="1.1" xmlns="http://www.w3.org/2000/svg" xmlns:xlink="http://www.w3.org/1999/xlink" xml:space="preserve" xmlns:serif="http://www.serif.com/" style="fill-rule:evenodd;clip-rule:evenodd;stroke-linejoin:round;stroke-miterlimit:2;">
    <g transform="matrix(1,0,0,1,378,88)">
        <path d="M-19,48C-19.907,47.711 18.812,264.141 68,265C116.48,265.847 169.602,117.199 170,117C170.058,124.273 154.122,282.041 190,295C202.324,299.451 224.425,281.356 240.484,265.457C247.22,258.789 265.235,222.977 266,222C266.33,222.66 250.643,286.154 250,288C249.34,288 231.016,360.607 222,370C212.505,372.323 162.066,353.739 121.491,348.296C100.295,345.452 18.157,339.539 -3.193,339.609C-8.456,339.626 -13.719,339.616 -18.982,339.599C-34.611,339.555 -91.623,339.398 -145.139,346.888C-197.883,354.27 -247.231,369.308 -250.215,368.113C-252,367 -274.32,296 -275,296C-277.681,289.132 -297.029,231.198 -299,225C-299.56,223.312 -241.678,300.647 -217.803,291.547C-177.803,276.301 -222.443,119.135 -222.191,118.957C-221.568,118.516 -146.054,266.206 -91.875,263.688C-58.04,262.115 -20.48,52.534 -19,48Z" style="fill:rgb(1,1,1);fill-rule:nonzero;"/>
    </g>
    <g transform="matrix(1,0,0,1,339.734375,441.761719)">
        <path d="M-207.734,34.238C-200.73,26.445 -146.004,13.867 -93.59,6.832C-41.553,-0.153 24.911,-0.086 28.809,-0.118C39.956,-0.208 114.758,2.076 170.753,10.369C219.899,17.648 248.343,24.705 256.266,35.238C261.491,42.185 262.313,106.842 257.953,111.988C248.581,116.227 76.097,112.928 23.079,112.981C14.616,112.989 -208.401,114.471 -212.734,110.238C-213.882,107.233 -214.797,43.38 -207.734,34.238Z" style="fill-rule:nonzero;"/>
    </g>
    <g transform="matrix(1,0,0,1,653,272)">
        <path d="M-19,7C-15.043,-1.037 -2.129,-1.381 3.617,2.52C10.373,7.106 14.495,19.023 8.625,27.125C2.944,34.966 -7.428,36.095 -14.878,31.024C-22.103,26.106 -23.46,16.06 -19,7Z" style="fill:rgb(2,2,2);fill-rule:nonzero;"/>
    </g>
    <g transform="matrix(1,0,0,1,557,169)">
        <path d="M-19,7C-15.043,-1.037 -2.129,-1.381 3.617,2.52C10.373,7.106 14.495,19.023 8.625,27.125C2.944,34.966 -7.428,36.095 -14.878,31.024C-22.103,26.106 -23.46,16.06 -19,7Z" style="fill:rgb(2,2,2);fill-rule:nonzero;"/>
    </g>
    <g transform="matrix(1,0,0,1,364,101)">
        <path d="M-19,7C-15.043,-1.037 -2.129,-1.381 3.617,2.52C10.373,7.106 14.495,19.023 8.625,27.125C2.944,34.966 -7.428,36.095 -14.878,31.024C-22.103,26.106 -23.46,16.06 -19,7Z" style="fill:rgb(2,2,2);fill-rule:nonzero;"/>
    </g>
    <g transform="matrix(1,0,0,1,156,173)">
        <path d="M-19,7C-15.043,-1.037 -2.129,-1.381 3.617,2.52C10.373,7.106 14.495,19.023 8.625,27.125C2.944,34.966 -7.428,36.095 -14.878,31.024C-22.103,26.106 -23.46,16.06 -19,7Z" style="fill:rgb(2,2,2);fill-rule:nonzero;"/>
    </g>
    <g transform="matrix(1,0,0,1,76,280)">
        <path d="M-19,7C-15.043,-1.037 -2.129,-1.381 3.617,2.52C10.373,7.106 14.495,19.023 8.625,27.125C2.944,34.966 -7.428,36.095 -14.878,31.024C-22.103,26.106 -23.46,16.06 -19,7Z" style="fill:rgb(2,2,2);fill-rule:nonzero;"/>
    </g>
</svg>
