<?xml version="1.0" encoding="UTF-8" standalone="no"?>
<!DOCTYPE svg PUBLIC "-//W3C//DTD SVG 1.1//EN" "http://www.w3.org/Graphics/SVG/1.1/DTD/svg11.dtd">
<svg width="100%" height="100%" viewBox="182 3 54 42" version="1.1" xmlns="http://www.w3.org/2000/svg" xmlns:xlink="http://www.w3.org/1999/xlink" xml:space="preserve" xmlns:serif="http://www.serif.com/" style="fill-rule:evenodd;clip-rule:evenodd;stroke-linejoin:round;stroke-miterlimit:2;">
    <g transform="matrix(0.059003,0,0,0.059003,-511.297649,-446.606316)">
        <g transform="matrix(4.166667,0,0,4.166667,12487.5,7833.333333)">
            <path d="M0,0C1.887,2.035 1.887,2.035 3,4C2.82,8.599 1.796,10.226 -1.523,13.453C-9.367,20 -9.367,20 -12,20L-12,23C-7.38,23.66 -2.76,24.32 2,25C3.368,30.472 1.635,33.191 -1,38C-2.827,40.824 -4.863,43.405 -7,46C-7.517,46.686 -8.034,47.372 -8.566,48.078C-14.991,56.07 -23.499,61.45 -32,67C-32.827,67.542 -33.655,68.084 -34.507,68.642C-54.827,81.79 -71.744,85.526 -95.614,80.837C-105.638,78.638 -112.056,74.417 -119.066,67.012C-120.984,65.016 -122.975,63.19 -125.062,61.375C-126.039,60.524 -126.039,60.524 -127.035,59.656C-128.353,58.545 -129.695,57.462 -131.059,56.406C-135.792,52.673 -135.792,52.673 -136.812,49.375C-135.612,45.866 -133.062,45.022 -130,43C-128.867,41.2 -127.742,39.394 -126.68,37.551C-124.386,34.067 -121.722,30.968 -119,27.812C-118.489,27.218 -117.979,26.624 -117.453,26.012C-115.986,24.325 -114.498,22.659 -113,21C-112.202,20.111 -111.404,19.221 -110.582,18.305C-107.55,15.599 -104.364,13.944 -100.688,12.312C-100.062,12.018 -99.436,11.723 -98.791,11.42C-90.975,7.853 -83.141,6.685 -74.688,5.688C-59.742,3.778 -45.618,-0.346 -31.32,-4.984C-19.093,-8.724 -10.706,-7.388 0,0Z" style="fill:rgb(233,178,189);fill-rule:nonzero;"/>
        </g>
    </g>
</svg>
