<?xml version="1.0" encoding="UTF-8" standalone="no"?>
<!DOCTYPE svg PUBLIC "-//W3C//DTD SVG 1.1//EN" "http://www.w3.org/Graphics/SVG/1.1/DTD/svg11.dtd">
<svg width="100%" height="100%" viewBox="0 0 512 512" version="1.1" xmlns="http://www.w3.org/2000/svg" xmlns:xlink="http://www.w3.org/1999/xlink" xml:space="preserve" xmlns:serif="http://www.serif.com/" style="fill-rule:evenodd;clip-rule:evenodd;stroke-linejoin:round;stroke-miterlimit:2;">
    <g transform="matrix(1,0,0,1,-16,0)">
        <path d="M363,95C386.696,73.671 386.841,61.699 399,57C404.453,54.892 422.425,53.97 430.944,60.809C440.45,68.441 442.395,83.791 436,89C425.911,97.218 406,114 406,114C406,114 387.082,127.725 382,116C375.942,102.022 350.74,106.035 363,95Z" style="fill:rgb(131,86,2);"/>
    </g>
    <g transform="matrix(1,0,0,1,-9,0)">
        <path d="M330,304C330,304 355.871,329.335 391,327C426.129,324.665 460.432,310.414 475,313C489.568,315.586 494,323 494,323C494,323 499.464,335.682 492,341C484.536,346.318 473.551,358.261 456,364C438.449,369.739 411.896,376.792 391,377C370.104,377.208 356.801,380.702 351,373C345.199,365.298 329.318,330.893 329,324C328.682,317.107 330,304 330,304Z" style="fill:rgb(251,225,52);"/>
    </g>
    <g transform="matrix(1,0,0,1,11,0)">
        <path d="M192,280C192,280 158.509,279.593 146,272C133.491,264.407 125.491,252.246 116,255C106.509,257.754 104,269 104,269C104,269 105.553,291.556 117,304C128.447,316.444 141.804,330.33 157,337C172.196,343.67 180,336 180,336C180,336 191.782,317.248 193,305C194.218,292.752 192,280 192,280Z" style="fill:rgb(251,225,52);"/>
    </g>
    <g transform="matrix(1.031747,0,0,1,-0.527112,0)">
        <path d="M322,99C322,99 280.313,104.596 256,122C231.687,139.404 205,188 205,188C205,188 194.62,219.263 193,240C191.38,260.737 198.553,291.553 191,310C183.447,328.447 166.261,363.375 151,370C135.739,376.625 97.591,389.938 72,385C46.409,380.062 44.894,375.419 35.723,377C28.151,378.305 18.904,380.501 17,389C15.092,397.515 22.055,409.266 31,414C39.945,418.734 68.497,432.134 88.631,432C112.562,431.841 213.285,416.444 227,352C240.426,288.911 239,248 239,248C239,248 245.759,192.988 261,174C276.241,155.012 286.355,132.104 303,124C319.645,115.896 334.809,107.179 331,104C327.191,100.821 322,99 322,99Z" style="fill:rgb(247,220,45);"/>
    </g>
    <path d="M333,99C333,99 284.087,141.437 270,167C255.913,192.563 230.079,214.027 238,333C245.921,451.973 410,456 410,456C410,456 431.638,454.663 434,444C435.942,435.234 434.789,423.712 426,421C417.211,418.288 362.34,400.29 356,381C349.66,361.71 321.792,337.04 323,298C324.208,258.96 368,185 368,185C368,185 387.955,152.216 385,138C382.045,123.784 377.293,101.784 365,96C352.707,90.216 333,99 333,99" style="fill:rgb(246,206,9);"/>
    <g transform="matrix(1,0,0,1,-9,0)">
        <path d="M364,353C364,353 395.588,359.592 415,356C434.412,352.408 464.198,340.749 468,338C471.802,335.251 475.214,334.715 475,337C474.786,339.285 469.055,342.88 467,344C461.026,347.257 425.774,359.595 417,361C408.124,362.422 373.616,363.032 364,359C354.384,354.968 364,353 364,353Z" style="fill:rgb(252,232,102);"/>
    </g>
    <g transform="matrix(1,0,0,1,-6,-1)">
        <path d="M329,129C329,129 291.129,163.809 281,187C270.871,210.191 258.655,240.425 262,281C265.328,321.362 265.278,331.127 276,356C286.722,380.873 303,401 303,401C303,401 306.413,403.279 309,402C311.587,400.721 309,396 309,396C309,396 285.405,359.58 281,347C279.283,342.097 273.71,326.468 271.95,309.51C269.768,288.48 267.945,265.698 268,260C268.097,249.95 274.688,215.586 285,196C295.312,176.414 312.072,154.951 322,144C331.928,133.049 339.965,125.923 335,125C332.189,124.477 329,129 329,129Z" style="fill:rgb(248,214,78);"/>
    </g>
</svg>
