<?xml version="1.0" encoding="UTF-8" standalone="no"?>
<!DOCTYPE svg PUBLIC "-//W3C//DTD SVG 1.1//EN" "http://www.w3.org/Graphics/SVG/1.1/DTD/svg11.dtd">
<svg width="100%" height="100%" viewBox="100 47 58 54" version="1.1" xmlns="http://www.w3.org/2000/svg" xmlns:xlink="http://www.w3.org/1999/xlink" xml:space="preserve" xmlns:serif="http://www.serif.com/" style="fill-rule:evenodd;clip-rule:evenodd;stroke-linejoin:round;stroke-miterlimit:2;">
    <g transform="matrix(0.059003,0,0,0.059003,-511.297649,-446.606316)">
        <g transform="matrix(4.166667,0,0,4.166667,10824.479167,8552.864583)">
            <path d="M0,0C1.568,0.412 1.568,0.412 3.167,0.833C6.161,1.634 9.144,2.464 12.125,3.312C13.254,3.632 13.254,3.632 14.406,3.958C23.268,6.553 30.048,10.424 37.125,16.312C37.967,16.98 38.809,17.648 39.676,18.336C46.353,23.923 51.039,30.351 55.875,37.495C57.093,39.265 58.348,40.999 59.625,42.727C72.317,59.916 85.639,79.984 84.125,102.312C83.375,105.25 83.375,105.25 82.125,107.312C78.17,109.174 74.332,107.531 70.375,106.375C69.678,106.18 68.98,105.984 68.262,105.783C66.547,105.302 64.836,104.808 63.125,104.312C63.72,109.958 66.896,114.013 69.975,118.609C72.753,122.981 73.782,125.979 73.125,131.312C71.329,134.066 70.072,135.839 67.125,137.312C54.502,139.731 45.799,139.648 34.625,132.625C28.206,128.076 22.199,122.969 16.25,117.828C8.924,111.554 1.345,106.326 -6.875,101.312C-7.826,100.726 -7.826,100.726 -8.796,100.127C-14.855,96.393 -20.861,92.711 -27.312,89.688C-31.526,87.665 -34.73,85.111 -38.137,81.93C-39.955,80.177 -39.955,80.177 -42.5,78.375C-55.956,66.69 -60.556,46.672 -64.409,30.002C-65.471,25.417 -66.944,22.951 -69.875,19.312C-69.938,17.25 -69.938,17.25 -68.875,15.312C-64.812,11.459 -60.791,10.027 -55.562,8.438C-53.956,7.927 -52.351,7.414 -50.746,6.898C-49.936,6.639 -49.127,6.38 -48.292,6.112C-43.871,4.649 -39.527,2.983 -35.178,1.317C-33.413,0.642 -31.644,-0.023 -29.875,-0.688C-28.983,-1.074 -28.091,-1.461 -27.172,-1.859C-17.953,-4.175 -9.002,-2.43 0,0Z" style="fill:rgb(232,177,188);fill-rule:nonzero;"/>
        </g>
    </g>
</svg>
