<?xml version="1.0" encoding="UTF-8" standalone="no"?>
<!DOCTYPE svg PUBLIC "-//W3C//DTD SVG 1.1//EN" "http://www.w3.org/Graphics/SVG/1.1/DTD/svg11.dtd">
<svg width="100%" height="100%" viewBox="0 0 268 360" version="1.1" xmlns="http://www.w3.org/2000/svg" xmlns:xlink="http://www.w3.org/1999/xlink" xml:space="preserve" xmlns:serif="http://www.serif.com/" style="fill-rule:evenodd;clip-rule:evenodd;stroke-linejoin:round;stroke-miterlimit:2;">
    <g transform="matrix(1,0,0,1,157,113)">
        <path d="M-10,-0.62C-8.5,-0.66 -6.796,-0.176 -4.932,0.456C-2.174,1.39 -0.068,2.647 0,3C-0.6,2.97 -8.83,2.68 -12.5,4.25C-15.15,6.18 -12.61,10.12 -11.38,10.19C-7.72,10.68 -5.1,11.62 -2.32,14.21C1.26,19.07 3,25.03 3,31C2.01,30.67 -7.6,19.02 -11,18C-10.92,19.49 -10.84,20.97 -10.75,22.5C-10.73,27.95 -12.25,31.41 -15,36C-15.68,37.33 -16.35,38.66 -17,40L-15,40C-13.34,41.65 -12.68,43.3 -13,45L-10.19,45C-4.22,45.81 0.55,50.21 5,54C5.66,54.99 6.32,55.98 7,57C7.08,54.06 7.14,51.13 7.19,48.19C7.21,47.35 7.24,46.52 7.26,45.66C7.27,44.86 7.28,44.06 7.29,43.23C7.31,42.49 7.32,41.75 7.34,40.99C6.91,38.48 5.93,37.61 4,36C5.65,36.33 7.3,36.66 9,37C9.66,34.03 8.32,31.06 11,28C12.5,28.98 12.5,29.98 12,32C12.66,32.67 13.32,31.34 14,31C13.553,28.343 13.506,28.863 13.143,26.118C13.1,25.794 13.053,25.425 13,25C14.49,25.5 16.75,29.25 17,33C15.06,35.25 15.06,35.25 13,37C13,39.59 13.02,42.19 13.04,44.78C13.04,46.69 13.05,48.59 13.06,50.5C13.07,51.46 13.08,52.43 13.09,53.42C13.09,54.34 13.09,55.27 13.1,56.22C13.1,57.06 13.11,57.91 13.11,58.78C13,61 13,61 12,64C5.88,64.55 2.77,63.76 -2.24,60.19C-4.1,58.82 -4.1,58.82 -7,58C-10,67.35 -8.74,78.37 -5.89,87.15C-5.09,94.91 -6.65,104.416 -7,106C-9.07,115.37 -10.26,124 -10.04,133.62C-9.99,137.84 -10.41,141.83 -11,146C-9.02,145.01 -9.02,145.01 -7,144C-7.5,144.76 -7.99,145.53 -8.5,146.31C-10.24,148.92 -10.24,148.92 -10,152C-7.48,153.26 -5.69,153.1 -2.88,153.06C-1.96,153.05 -1.05,153.04 -0.12,153.04C0.58,153.02 1.28,153.01 2,153C2,152.01 5,153 3.75,154.39C-0.79,157.76 -16.68,156.76 -20,156C-19.86,155.15 -19.71,154.31 -19.56,153.44C-19.28,151.74 -19.28,151.74 -19,150C-18.83,149.01 -18.66,148.03 -18.48,147.01C-16.53,133.11 -17.25,118.49 -21,105C-22.84,114.01 -23.31,122.69 -23.25,131.88C-23.26,133.15 -23.27,134.43 -23.27,135.75L-23.27,139.49C-23.26,140.6 -23.26,141.71 -23.26,142.85C-22.99,146.18 -22.09,148.85 -21,152L-21,156C-35.33,159.29 -44.61,155.74 -46,153C-45,152.01 -39.08,153.05 -37.62,153.06C-36.41,153.08 -36.41,153.08 -35.16,153.1C-32.95,153.14 -32.95,153.14 -31,152C-31.63,149.07 -32.59,146.64 -34,144C-32.68,144.66 -31.36,145.32 -30,146C-30.17,145.19 -30.34,144.37 -30.51,143.54C-31.08,139.44 -30.98,135.56 -30.88,131.44C-30.77,124.63 -31.54,118.79 -33.33,112.19C-34.52,106.51 -37.72,92.64 -36,87C-34.52,78.53 -32.54,66.82 -35,58C-37.21,59.03 -39.07,60.06 -41,61.56C-45.08,64.5 -47.08,64.09 -54,64C-55.98,62.05 -55.09,59.25 -55.03,56.18C-55.02,55.25 -55,54.33 -54.99,53.37C-54.96,51.41 -54.92,49.45 -54.87,47.49C-54.86,46.57 -54.85,45.64 -54.84,44.68C-54.82,43.83 -54.81,42.98 -54.79,42.11C-54.8,39.78 -54.8,39.78 -57,38C-56.01,37.5 -56.01,37.5 -55,37C-55.68,36.48 -56.36,35.97 -57.06,35.44C-59,33 -59,33 -58.75,29.25C-58.5,28.18 -55.36,25.34 -54,25C-54.66,25.99 -56.467,30.06 -56,31C-55.34,32.33 -54.68,31.66 -54,32C-53.67,30.68 -54.34,30.36 -53,29C-50.5,30.37 -51,33.2 -51,37C-48.53,36.5 -48.53,36.5 -46,36C-46.49,36.41 -46.98,36.82 -47.48,37.24C-49.36,39.42 -49.35,40.39 -49.29,43.23C-49.28,44.43 -49.28,44.43 -49.26,45.66C-49.24,46.5 -49.21,47.33 -49.19,48.19C-49.17,49.03 -49.16,49.88 -49.15,50.75C-49.11,52.83 -49.06,54.92 -49,57C-48.52,56.47 -48.03,55.94 -47.53,55.39C-43.21,50.84 -39.08,46.94 -33,45L-29,45C-29,44.34 -29,41.02 -27,40L-25,40C-25.78,38.75 -25.78,38.75 -26.57,37.47C-30.6,30.59 -33.05,26.07 -31,18C-35.46,18.26 -37.52,18.58 -40.94,21.56C-41.62,22.37 -42.3,23.17 -43,24C-42.63,17.85 -35,10 -31.12,10.31C-28.99,10.42 -24.59,7.26 -23,4C-21.443,0.807 -18.02,0.11 -13.75,-0.35C-12.51,-0.44 -11.283,-0.586 -10,-0.62Z" style="fill:rgb(3,3,3);fill-rule:nonzero;"/>
    </g>
    <g id="Hat-topper" serif:id="Hat topper" transform="matrix(1,0,0,1,-1,-4)">
        <circle cx="115" cy="142" r="2" style="fill:rgb(12,12,11);"/>
    </g>
    <g id="Hat-topper1" serif:id="Hat topper" transform="matrix(1,0,0,1,43,-26)">
        <circle cx="115" cy="142" r="2" style="fill:rgb(12,12,11);"/>
    </g>
    <g id="Hat-topper2" serif:id="Hat topper" transform="matrix(1,0,0,1,45,3)">
        <circle cx="115" cy="142" r="2" style="fill:rgb(12,12,11);"/>
    </g>
    <g id="Cards---Balls" serif:id="Cards &amp; Balls">
        <g transform="matrix(0.754465,-0.656341,0.656341,0.754465,-50.71513,69.029235)">
            <path d="M105,128.75L105,135.25C105,136.216 104.216,137 103.25,137L99.75,137C98.784,137 98,136.216 98,135.25L98,128.75C98,127.784 98.784,127 99.75,127L103.25,127C104.216,127 105,127.784 105,128.75Z" style="fill:rgb(12,12,11);"/>
        </g>
        <g transform="matrix(1,0,0,1,-3,-1)">
            <circle cx="109.5" cy="116.5" r="4.5" style="fill:rgb(12,12,11);"/>
        </g>
        <g transform="matrix(1,0,0,1,41,-23)">
            <circle cx="109.5" cy="116.5" r="4.5" style="fill:rgb(12,12,11);"/>
        </g>
        <g transform="matrix(0.958491,-0.285122,0.285122,0.958491,-32.422942,32.419009)">
            <path d="M105,128.75L105,135.25C105,136.216 104.216,137 103.25,137L99.75,137C98.784,137 98,136.216 98,135.25L98,128.75C98,127.784 98.784,127 99.75,127L103.25,127C104.216,127 105,127.784 105,128.75Z" style="fill:rgb(12,12,11);"/>
        </g>
        <g transform="matrix(0.921358,0.388716,-0.388716,0.921358,129.292736,-30.073886)">
            <path d="M105,128.75L105,135.25C105,136.216 104.216,137 103.25,137L99.75,137C98.784,137 98,136.216 98,135.25L98,128.75C98,127.784 98.784,127 99.75,127L103.25,127C104.216,127 105,127.784 105,128.75Z" style="fill:rgb(12,12,11);"/>
        </g>
        <g transform="matrix(0.748698,0.662912,-0.662912,0.748698,149.011517,-75.113621)">
            <path d="M105,128.75L105,135.25C105,136.216 104.216,137 103.25,137L99.75,137C98.784,137 98,136.216 98,135.25L98,128.75C98,127.784 98.784,127 99.75,127L103.25,127C104.216,127 105,127.784 105,128.75Z" style="fill:rgb(12,12,11);"/>
        </g>
        <g transform="matrix(1,0,0,1,14,-23)">
            <circle cx="109.5" cy="116.5" r="4.5" style="fill:rgb(12,12,11);"/>
        </g>
        <g transform="matrix(0.754465,-0.656341,0.656341,0.754465,-1.71513,72.029235)">
            <path d="M105,128.75L105,135.25C105,136.216 104.216,137 103.25,137L99.75,137C98.784,137 98,136.216 98,135.25L98,128.75C98,127.784 98.784,127 99.75,127L103.25,127C104.216,127 105,127.784 105,128.75Z" style="fill:rgb(12,12,11);"/>
        </g>
        <g transform="matrix(1,0,0,1,59,1)">
            <circle cx="109.5" cy="116.5" r="4.5" style="fill:rgb(12,12,11);"/>
        </g>
    </g>
    <g id="Hat-topper3" serif:id="Hat topper" transform="matrix(1,0,0,1,46,123.437427)">
        <circle cx="115" cy="142" r="2" style="fill:rgb(12,12,11);"/>
    </g>
    <g id="Hat-topper4" serif:id="Hat topper" transform="matrix(1,0,0,1,-3,123.437427)">
        <circle cx="115" cy="142" r="2" style="fill:rgb(12,12,11);"/>
    </g>
</svg>
