<?xml version="1.0" encoding="UTF-8" standalone="no"?>
<!DOCTYPE svg PUBLIC "-//W3C//DTD SVG 1.1//EN" "http://www.w3.org/Graphics/SVG/1.1/DTD/svg11.dtd">
<svg width="100%" height="100%" viewBox="10 25 70 50" version="1.1" xmlns="http://www.w3.org/2000/svg" xmlns:xlink="http://www.w3.org/1999/xlink" xml:space="preserve" xmlns:serif="http://www.serif.com/" style="fill-rule:evenodd;clip-rule:evenodd;stroke-linejoin:round;stroke-miterlimit:2;">
    <g transform="matrix(0.059003,0,0,0.059003,-511.297649,-446.606316)">
        <g transform="matrix(4.166667,0,0,4.166667,9600,8233.333333)">
            <path d="M0,0C1.153,0.437 2.305,0.873 3.493,1.323C14.148,5.43 23.905,10.018 33,17C33.975,17.721 34.949,18.441 35.953,19.184C41.678,23.6 47.071,28.228 50,35C50.145,37.766 50.145,37.766 50,40C49.192,40.398 48.384,40.797 47.551,41.207C46.482,41.737 45.414,42.267 44.312,42.812C43.257,43.335 42.201,43.857 41.113,44.395C40.086,44.924 39.059,45.454 38,46C37.045,46.458 36.09,46.915 35.105,47.387C34.411,47.919 33.716,48.451 33,49C32.582,51.627 32.582,51.627 33,54C33.678,54.11 34.356,54.219 35.055,54.332C51.827,57.189 51.827,57.189 56.625,61.188C58.509,65.041 59.266,67.903 58,72C56.004,74.976 53.801,77.591 51.418,80.266C49.304,82.656 47.548,85.061 45.75,87.688C32.839,104.364 8.06,106.604 -11.351,109.308C-13.631,109.626 -15.909,109.953 -18.188,110.281C-49.018,114.674 -81.493,117.24 -108,98C-117.009,90.775 -125.313,82.421 -131.938,72.938C-134.462,69.499 -137.242,66.866 -140.582,64.227C-142.656,62.432 -142.987,61.066 -143.5,58.375C-142.86,54.054 -141.182,52.74 -138.25,49.637C-135.39,46.285 -133.057,42.708 -130.688,39C-130.217,38.268 -129.746,37.536 -129.26,36.782C-126.919,33.113 -124.644,29.419 -122.457,25.656C-112.185,8.137 -96.695,-0.911 -78,-8C-77.095,-8.35 -76.189,-8.699 -75.256,-9.06C-49.359,-18.431 -24.368,-9.329 0,0Z" style="fill:rgb(232,176,187);fill-rule:nonzero;"/>
        </g>
    </g>
</svg>
