<?xml version="1.0" encoding="UTF-8" standalone="no"?>
<!DOCTYPE svg PUBLIC "-//W3C//DTD SVG 1.1//EN" "http://www.w3.org/Graphics/SVG/1.1/DTD/svg11.dtd">
<svg width="100%" height="100%" viewBox="0 0 512 512" version="1.1" xmlns="http://www.w3.org/2000/svg" xmlns:xlink="http://www.w3.org/1999/xlink" xml:space="preserve" xmlns:serif="http://www.serif.com/" style="fill-rule:evenodd;clip-rule:evenodd;stroke-linejoin:round;stroke-miterlimit:2;">
    <g id="Pot" transform="matrix(0.634907,0,0,0.634907,260.992254,306.189274)">
        <path d="M0,0C4.031,3.115 4.67,7.487 5.297,12.258C5.742,19.954 3.361,28.178 -1.793,34.039C-3.307,35.986 -3.307,35.986 -2.438,38.477C-0.884,41.203 0.802,43.138 3,45.375C11.089,54.103 17.561,64.436 23,75C24.176,74.959 25.351,74.918 26.562,74.875C47.926,74.975 68.236,81.816 83.562,96.938C88.281,101.806 91.989,106.927 95,113C95.387,113.749 95.773,114.498 96.172,115.27C102.001,127.33 102.746,141.049 99.098,153.895C95.325,164.567 90.13,173.138 82,181C81.34,181.646 80.68,182.292 80,182.957C71.216,191.086 61.339,195.449 50,199C49.254,199.237 48.507,199.474 47.738,199.719C43.964,200.727 40.691,201.015 36.801,200.738C29.772,200.366 29.772,200.366 23,202C18.725,205.916 16.595,211.581 14.164,216.737C12.357,220.25 10.047,223.255 7.562,226.312C7.104,226.879 6.646,227.445 6.174,228.029C4.8,229.701 3.406,231.354 2,233C1.545,233.535 1.09,234.07 0.621,234.621C-8.938,245.731 -20.263,254.336 -32,263C-31.675,264.052 -31.675,264.052 -31.344,265.125C-28.644,274.323 -27.552,282.135 -32,291C-36.962,298.565 -42.283,301.839 -51,304C-56.906,304.569 -62.777,304.548 -68.705,304.518C-70.474,304.523 -72.243,304.53 -74.011,304.539C-78.786,304.557 -83.56,304.55 -88.335,304.537C-93.347,304.527 -98.359,304.537 -103.372,304.543C-111.785,304.55 -120.199,304.541 -128.612,304.521C-138.322,304.5 -148.031,304.507 -157.741,304.529C-166.098,304.547 -174.454,304.549 -182.812,304.539C-187.794,304.533 -192.776,304.532 -197.758,304.545C-202.443,304.557 -207.127,304.549 -211.811,304.526C-213.525,304.52 -215.238,304.522 -216.951,304.531C-227.64,304.581 -236.167,303.852 -245.312,297.812C-250.672,292.203 -253.677,286.365 -254.152,278.562C-253.933,274.865 -252.935,271.603 -251.691,268.129C-250.846,265.898 -250.846,265.898 -251,263C-252.922,261.331 -254.814,259.854 -256.875,258.375C-262.901,253.892 -268.543,249.171 -274,244C-274.895,243.158 -275.789,242.316 -276.711,241.449C-288.083,230.443 -300.407,216.409 -305,201C-305.824,201.179 -306.647,201.358 -307.496,201.543C-311.469,202.061 -315.115,201.806 -319.062,201.312C-319.811,201.219 -320.559,201.126 -321.329,201.03C-341.549,198.279 -360.041,188.832 -372.5,172.5C-382.235,158.103 -385.516,142.261 -382.277,125.191C-377.132,107.505 -365.551,93.843 -349.626,84.853C-336.835,77.982 -322.532,74.533 -308,75C-306.515,75.495 -306.515,75.495 -305,76C-304.642,74.749 -304.642,74.749 -304.277,73.473C-302.795,69.442 -300.845,66.058 -298.562,62.438C-298.129,61.745 -297.695,61.053 -297.248,60.339C-292.292,52.62 -286.489,45.489 -280,39C-280.379,35.411 -282.277,32.549 -284,29.438C-288.687,20.131 -288.768,12.883 -285.691,3.02C-285.463,2.353 -285.235,1.687 -285,1C-284.261,1.459 -283.523,1.918 -282.762,2.391C-277.636,5.491 -272.872,8.19 -267.125,9.938C-262.179,11.593 -260.242,13.649 -257.414,17.93C-245.103,35.955 -215.969,41.97 -196.039,45.898C-162.745,52.095 -126.419,52.914 -93,47C-91.53,46.743 -91.53,46.743 -90.031,46.48C-67.125,42.308 -39.919,35.424 -23.688,17.438C-20.157,14.235 -16.233,12.592 -11.953,10.547C-6.897,7.899 -3.158,4.737 0,0ZM-342,122C-346.261,126.699 -348.864,131.633 -349.066,138.125C-348.627,145.788 -345.349,152.157 -339.688,157.312C-333.506,162.163 -325.932,166 -318,166C-318.107,164.886 -318.107,164.886 -318.215,163.75C-319.863,145.834 -320.004,128.927 -318,111C-327.373,111 -335.354,115.648 -342,122ZM35,111C35.144,112.27 35.289,113.539 35.438,114.848C37.345,132.229 36.973,148.65 35,166C45.552,165.011 54.233,160.935 61.441,152.992C65.697,147.552 66.549,142.448 66.355,135.715C65.811,131.554 64.281,128.477 62,125C61.464,124.134 60.928,123.267 60.375,122.375C54.681,116.681 45.495,111.142 37.27,110.93C36.521,110.953 35.772,110.976 35,111Z" style="fill:rgb(30,38,28);fill-rule:nonzero;"/>
    </g>
    <g id="Coins" transform="matrix(0.634907,0,0,0.634907,17.822931,184.28716)">
        <g transform="matrix(1,0,0,1,253,135)">
            <path d="M0,0C0.88,0.352 1.761,0.704 2.668,1.066C8.395,3.63 12.58,6.675 16,12C17.67,17.01 17.557,20.676 15.5,25.562C9.807,34.379 0.371,37.133 -9.328,39.59C-23.871,41.822 -39.342,40.186 -51.715,31.844C-55.378,29.049 -57.445,26.319 -59,22C-59.612,17.192 -59.034,13.821 -56.379,9.695C-44.192,-5.288 -16.819,-6.854 0,0Z" style="fill:rgb(238,199,41);fill-rule:nonzero;"/>
        </g>
        <g transform="matrix(1,0,0,1,291.078125,89.5)">
            <path d="M0,0C4.785,3.735 7.003,7.475 7.922,13.5C7.122,19.374 3.944,23.262 -0.578,26.895C-7.834,31.554 -17.318,35.283 -26.078,34.5C-28.377,33.714 -30.448,32.721 -32.613,31.621C-39.684,28.405 -47.327,27.452 -55.016,27.25C-60.456,26.954 -60.456,26.954 -63.191,24.957C-67.056,20.483 -68.583,16.85 -68.469,10.941C-67.582,5.401 -64.118,1.995 -59.723,-1.227C-42.05,-11.825 -17.221,-11.558 0,0Z" style="fill:rgb(238,199,41);fill-rule:nonzero;"/>
        </g>
        <g transform="matrix(1,0,0,1,122,153)">
            <path d="M0,0C1.64,0.782 3.264,1.597 4.875,2.438C17.155,8.769 30.085,8.476 43.469,6.473C49.188,5.707 49.188,5.707 52,6C54.811,9.114 55.895,11.281 56.5,15.438C55.631,21.627 53.132,25.355 48.375,29.188C36.08,37.783 20.422,38.868 5.896,36.684C-2.21,34.92 -10.314,31.402 -16.438,25.75C-18.941,21.344 -20.675,16.947 -19.508,11.852C-16.089,3.954 -8.585,-2.146 0,0Z" style="fill:rgb(238,199,41);fill-rule:nonzero;"/>
        </g>
        <g transform="matrix(1,0,0,1,220,76)">
            <path d="M0,0C-1.399,3.139 -3.082,5.325 -5.438,7.812C-10.485,13.489 -12.828,19.441 -13,27C-12.758,29.685 -12.375,32.329 -12,35C-14.218,37.218 -18.665,36.309 -21.651,36.319C-34.977,36.077 -49.433,31.567 -59,22C-61.718,18.543 -63.247,15.363 -63.5,10.938C-62.823,5.604 -61.206,2.983 -57.223,-0.598C-41.03,-12.87 -16.772,-8.99 0,0Z" style="fill:rgb(238,199,41);fill-rule:nonzero;"/>
        </g>
        <g transform="matrix(1,0,0,1,347,154)">
            <path d="M0,0C8.495,1.393 17.111,4.389 23.062,10.938C25.551,14.871 27.388,18.195 26.727,22.977C24.716,29.738 19.783,33.816 13.828,37.254C0.723,43.551 -15.572,43.967 -29.418,39.914C-36.921,37.258 -43.719,33.878 -47.875,26.812C-49,24 -49,24 -49,22C-47.707,21.841 -46.414,21.683 -45.082,21.52C-26.9,19.142 -11.799,14.948 0,0Z" style="fill:rgb(238,199,41);fill-rule:nonzero;"/>
        </g>
        <g transform="matrix(1,0,0,1,147.046875,105.566406)">
            <path d="M0,0C2.473,1.815 4.047,4.036 5.953,6.434C16.987,15 29.384,18.965 42.953,21.434C42.953,25.439 41.587,26.755 38.977,29.66C35.149,33.015 30.682,34.689 25.953,36.434C25.144,36.755 24.334,37.076 23.5,37.406C12.24,41.213 -2.976,41.498 -13.91,36.641C-18.243,34.193 -22.575,31.438 -24.047,26.434C-24.737,20.456 -23.429,16.277 -20.047,11.434C-15.842,6.754 -6.746,-1.867 0,0Z" style="fill:rgb(238,199,41);fill-rule:nonzero;"/>
        </g>
        <g transform="matrix(1,0,0,1,310,118)">
            <path d="M0,0C8.518,1.396 16.991,4.448 23.125,10.812C25.538,14.914 26.265,18.262 26,23C24.237,28.876 19.907,32.57 15,36C3.117,42.355 -10.911,43.417 -24,41C-24.121,39.964 -24.242,38.927 -24.367,37.859C-24.536,36.49 -24.705,35.12 -24.875,33.75C-24.954,33.068 -25.032,32.386 -25.113,31.684C-25.573,28.043 -26.248,25.21 -28,22L-28,19C-27.094,18.648 -26.188,18.296 -25.254,17.934C-14.949,13.757 -6.824,9.025 0,0Z" style="fill:rgb(238,199,41);fill-rule:nonzero;"/>
        </g>
        <g transform="matrix(1,0,0,1,279.125,174.875)">
            <path d="M0,0C0.949,0.041 1.897,0.083 2.875,0.125C3.022,0.887 3.169,1.649 3.32,2.434C5.809,13.892 10.067,20.643 19.773,27.328C24.882,30.288 30.283,32.276 35.875,34.125L35.875,36.125C33.815,36.943 31.752,37.754 29.688,38.562C28.539,39.015 27.39,39.467 26.207,39.934C13.247,44.567 -3.052,43.313 -15.605,38.094C-22.176,34.836 -27.68,30.058 -30.25,23.062C-30.08,19.068 -29.876,16.1 -27.125,13.125C-23.983,11.607 -20.809,10.498 -17.504,9.383C-11.703,7.223 -5.722,0.229 0,0Z" style="fill:rgb(238,199,41);fill-rule:nonzero;"/>
        </g>
        <g transform="matrix(1,0,0,1,218.777344,189.277344)">
            <path d="M0,0C5.021,1.126 10.098,1.377 15.223,1.723C15.14,2.981 15.058,4.239 14.973,5.535C15.061,16.805 20.456,24.056 28.223,31.723C28.809,32.31 29.396,32.898 30,33.504C30.403,33.906 30.807,34.308 31.223,34.723C21.924,39.372 7.395,36.666 -2.078,33.684C-8.684,31.133 -15.151,28.062 -18.934,21.812C-20.414,18.145 -20.313,14.604 -19.777,10.723C-18.215,7.535 -18.215,7.535 -15.777,4.723C-15.315,4.139 -14.852,3.555 -14.375,2.953C-9.777,-2.027 -6.322,-1.463 0,0Z" style="fill:rgb(238,199,41);fill-rule:nonzero;"/>
        </g>
        <g transform="matrix(1,0,0,1,184,191)">
            <path d="M0,0C1.396,2.792 0.601,4.346 -0.062,7.375C-1.266,13.958 -0.491,19.531 1,26C-9.721,24.6 -18.989,22.589 -27,15C-26,13 -26,13 -23.227,11.957C-22.038,11.579 -20.85,11.202 -19.625,10.812C-12.61,8.474 -5.311,5.311 0,0Z" style="fill:rgb(238,199,41);fill-rule:nonzero;"/>
        </g>
    </g>
    <g id="Rainbow">
        <g transform="matrix(1,0,0,1,-34,-7)">
            <path d="M162,227C161.739,227.41 179.546,221.197 192,230C192.291,230.205 280.193,73.74 464.84,70.907C465.706,70.894 466.691,53.994 466,54C267.179,55.644 180.655,197.738 162,227Z" style="fill:rgb(255,34,38);"/>
        </g>
        <g transform="matrix(1,0,0,1,-8,9)">
            <path d="M169,215C168.749,215.416 175.546,211.197 189,220C189.298,220.195 281.193,72.74 437.84,71.907C438.706,71.902 439.691,58.019 439,58C282.179,53.644 186.655,185.738 169,215Z" style="fill:rgb(255,108,9);"/>
        </g>
        <g transform="matrix(1,0,0,1,14,17)">
            <path d="M171,211C170.739,211.41 177.546,210.197 191,219C191.298,219.195 281.193,77.74 414.84,77.907C415.706,77.908 416.691,66.023 416,66C287.179,61.644 189.655,181.738 171,211Z" style="fill:rgb(255,222,9);"/>
        </g>
        <g transform="matrix(1,0,0,1,37,25)">
            <path d="M170,212C169.749,212.416 180.546,215.197 182,225C182.052,225.352 290.193,76.74 390.84,86.907C391.702,86.994 392.691,72.022 392,72C287.179,68.644 187.655,182.738 170,212Z" style="fill:rgb(26,197,0);"/>
        </g>
        <g transform="matrix(1,0,0,1,50,41)">
            <path d="M171,211C170.713,211.392 185.546,213.197 186,226C186.013,226.356 293.193,76.74 376.84,85.907C377.701,86.001 378.688,72.058 378,72C291.179,64.644 191.655,182.738 171,211Z" style="fill:rgb(57,100,255);"/>
        </g>
        <g transform="matrix(1,0,0,1,67,60)">
            <path d="M171,209C170.727,209.402 180.546,207.197 189,223C189.168,223.314 286.193,75.74 358.84,83.907C359.701,84.004 360.685,69.093 360,69C291.179,59.644 195.655,172.738 171,209Z" style="fill:rgb(173,40,255);"/>
        </g>
    </g>
</svg>
